<svg
      xmlns="http://www.w3.org/2000/svg"
      width="320"
      height="258.344"
      version="1.1"
      viewBox="0 0 300 242.197"
    >
      <g transform="translate(-181.429 -1179.835)">
        <g
          fillOpacity="1"
          fillRule="nonzero"
          stroke="none"
          transform="matrix(1.8208 0 0 1.8208 -1298.144 293.405)"
        >
          <path d="M832.576 533.576c1.723-.757 2.322-.98 3.683-1.454 1.006-.35 2.045-.763 3.17-1.164 3.354 3.503 7.102 8 9.316 10.484 2.821 3.165 6.056 6.745 9.73 10.026-1.021-3.042-2.83-6.976-4.26-10.341-1.431-3.365-4.696-12.038-6.506-16.06 1.28-.69 4.084-1.626 5.755-2.22 1.094-.389 2.754-.92 3.864-1.431a785.59 785.59 0 016.006 15.65c1.345 3.63 3.209 7.956 4.977 13.018 1.644 4.704 3.697 9.662 4.653 12.02.956 2.36 2.329 6.303 3.304 8.393-1.66.941-4.377 1.555-7.4 2.629-3-3.16-5.758-5.58-8.74-8.75-3.394-3.604-7.32-8.224-8.905-9.925-1.86-1.997-6.348-6.965-6.348-6.965 1.695 4.445 5.193 14.01 6.57 18.216 1.375 4.205 2.533 7.375 2.864 8.312-1.401.763-3.023 1.485-3.648 1.708-.626.221-1.353.482-2.083.739-1.58-3.782-3.652-9.618-4.942-12.913-1.29-3.299-2.538-8.136-4.857-14.002-2.319-5.865-5.715-14.265-6.203-15.97"></path>
          <path d="M883.884 530.821c2.089-.976 5.974-2.182 8.643-3.422-.882-2.152-3.034-7.962-4.147-9.853-1.386-2.359-3.582-4.304-5.895-4.536-2.312-.235-4.87-.5-9.382 1.337-4.513 1.838-7.59 4.985-8.351 7.545-.738 2.473-1.199 4.885 1.287 12.218 2.489 7.331 7.293 10.7 11.701 9.809 3.317-.67 5.612-1.055 7.5-1.022 1.89.033 5.222.492 6.642 5.152 1.422 4.658-1.348 6.112-3.642 6.927-2.292.814-5.316 1.68-6.936-2.347-1.347-3.348-1.511-3.923-1.511-3.923-2.223.848-3.16 1.181-6.443 2.348 1.178 2.985 2.994 7.506 5.203 9.36 2.509 2.1 6.52 2.493 12.981.198s9.731-6.802 8.855-10.422c-.602-2.494-3.434-10.911-5.517-13.385-2.284-2.71-7.037-2.459-11.299-2.235-4.263.222-7.458.976-9.088-1.466-1.386-2.074-3.076-7.005-2.902-8.828.175-1.822 3.077-2.736 3.702-2.959.625-.222 3.705-1.05 4.84.745.92 1.452.75 1.612 3.76 8.76"></path>
          <path d="M890.174 510.865c1.527-.573 2.981-1.178 4.444-1.698.572-.202 1.946-.632 3.442-1.046 1.444 4.065 3.746 9.554 6.005 15.911 2.259 6.357 4.175 10.928 5.064 13.428.89 2.502 4.037 11.36 4.696 12.885-1.49.764-3.955 1.757-4.787 2.054-.833.296-2.227.673-3.022 1.073-1.595-4.656-3.336-9.553-4.595-13.097-1.26-3.543-4.222-11.88-6.653-18.234-2.578-6.725-3.677-9.021-4.594-11.276"></path>
          <path d="M921.4 539.791c1.742-.384 3.81-1.002 4.884-1.617 1.07-.617 5.515-2.313 3.592-9.375-1.922-7.063-3.888-11.939-4.93-14.21-1.214-2.644-3.975-6.655-8.137-5.472-3.302.94-5.815 2.213-5.815 2.213 1.315 3.7 3.468 9.532 5.333 14.507 1.715 4.583 4.11 11.244 5.074 13.954m-8.153-36.655c6.963-2.534 11.448-1.387 16.043 2.955 4.197 3.966 8.046 14.306 9.546 21.168 1.497 6.86-.618 13.128-3.993 15.853-3.373 2.725-4.665 2.89-7.79 4.002-3.127 1.11-6.337 1.985-8.758 2.933-.42-1.26-.777-2.1-1.99-5.19-1.217-3.088-4.875-12.676-7.607-19.92-3.042-8.072-4.602-12.37-6.798-17.652 2.097-.864 4.902-1.805 11.347-4.149"></path>
          <path d="M870.2 601.416c4.398 12.277 8.512 16.918 11.89 17.98 2.58.81 5.133.588 9.677-1.025 4.542-1.613 7.808-3.035 9.542-7.127 1.731-4.091-.37-10.515-3.801-19.916-3.975-10.887-7.106-15.408-8.553-16.462-.92-.67-3.628-3.15-11.325-.9-7.695 2.253-9.72 5.93-10.742 9.707-1.126 4.166.027 8.573 3.312 17.743m6-16.577c.454-1.286 2.205-2.169 4.293-2.815 2.089-.645 3.925-.91 5.067.131 1.142 1.043 2.76 4.233 5.732 12.058 2.972 7.825 4.458 11.561 3.722 13.737-.591 1.751-1.622 2.8-4.054 3.566-2.43.768-4.59.374-5.83-1.213-1.24-1.587-3.653-6.605-5.693-12.06-2.363-6.32-4.054-11.087-3.238-13.404"></path>
          <path d="M892.062 564.593c3.233-.956 8.033-2.661 9.661-3.24 2.027 6.52 4.613 12.166 6.434 17.021 1.821 4.855 3.534 9.943 4.984 13.481 1.451 3.54 2.384 5.89 4.487 5.84 2.622-.06 7.904-1.513 7.844-4.66-.052-2.627-.417-5.133-2.624-10.806-2.408-6.194-4.48-12.157-5.88-16.1-1.402-3.942-3.66-9.665-4.312-10.687 2.051-1.02 6.226-2.31 6.226-2.31 2.409 5.42 5.498 13.973 7.61 19.79 2.238 6.163 5.713 16.89 5.916 19.907.203 3.018.442 6.408-3.467 9.535-3.909 3.128-11.818 4.778-15.133 4.411-3.316-.367-6.606-2.287-9.182-8.998-2.578-6.71-5.063-14.515-6.604-18.31-1.541-3.798-5.411-13.333-5.96-14.874"></path>
          <path d="M842.49 571.964c-.748-2.434-2.1-6.325-2.945-8.371-.844-2.048-3.793-9.685-5.238-13.749-1.442-4.065-4.07-10.466-8.321-22.101-1.686-4.618-2.524-7.615-3.828-11.173-1.142.427-2.62.952-3.98 1.35-1.61.474-2.706.815-5.582 2.004 2.197 5.73 6.709 17.599 9.949 25.883 3.83 9.79 7.797 20.702 9.813 25.885 2.017 5.178 4.834 11.94 4.834 11.94 1.714-.873 6.04-2.322 8.251-3.284-.387-1.006-2.206-5.95-2.953-8.384"></path>
          <path d="M976.805 522.662a41.415 41.415 0 00-1.041-4.284l-1.984.669c-6.29 2.117-9.214 3.998-13.73 5.486-4.519 1.487-9.699 3.092-9.699 3.092-1.178-2.983-3.14-8.506-3.346-10.076 2.219-1.024 6.201-3.025 9.499-4.314 3.297-1.29 3.961-1.407 5.279-1.992-.364-.693-1.593-4.481-2-5.628-2.01.95-4.8 1.354-6.57 1.983-1.773.63-4.55 1.734-6.39 2.504-.733-1.734-2.095-5.24-3.312-8.33 3.888-1.615 10.372-4.507 12.635-5.075-.838-1.698-3.097-8.054-3.55-9.654-3.757.982-6.422 2.4-10.763 4.059-4.34 1.658-7.952 2.885-10.83 4.2 2.6 6 5.837 14.121 7.875 19.853 2.036 5.732 4.065 11.524 5.337 14.857a131.994 131.994 0 012.511 7.236c3.857-1.37 9.357-2.738 14.352-4.864 4.995-2.127 10.486-5.039 14.2-6.476.652-.251 1.355-.518 2.08-.793a52.943 52.943 0 01-.553-2.453"></path>
          <path d="M955.104 607.409c1.162-.483 2.777-1.124 4.255-1.61 1.37-.451 2.368-.794 4.423-1.694-2.125-5.764-5.683-16.122-6.807-18.75-1.72-4.021-10.421-29.601-11.279-32.289 2.083-.932 7.935-3.205 12.308-4.76-.452-.996-1.565-4.533-2.267-6.917-3.452 1.42-6.025 2.335-11.505 4.571-5.478 2.236-9.88 3.705-13.278 5.008-3.399 1.305-6.49 2.112-7.74 2.943.64 1.8 1.748 4.108 1.998 5.082.25.973 1.25 3.513 1.25 3.513 3.175-.838 8.827-3.136 11.124-3.468 2.613 7.083 5.006 13.28 7.791 20.302 2.785 7.025 6.57 19.286 8.642 25.114.346.976.702 1.94 1.085 2.955"></path>
          <path d="M861.609 508.535s-.72-1.577-3.617-2.51l-.056-.02a12.408 12.408 0 00-.67-.189c-.895-.228-1.771-.327-2.461-.38-2.04-.16-4.823.195-6.89 1.71-.293.237-.301.6-.305.938.005.049.017.138.066.178.169.09.374.034.573-.026.08-.028.255-.09.366-.148.066-.042.122-.095.092-.174a.08.08 0 00-.027-.036c-.214-.135-.428.023-.621-.014-.006-.004-.01-.01-.01-.016a.12.12 0 01.013-.041.578.578 0 01.203-.181.284.284 0 00.03-.02l.046-.025a.337.337 0 01.03-.014c1.77-.948 3.7-1.235 5.53-1.205 2.124.111 4.687.497 6.265 2.223.04.047.087.102.133.165l.011.018c.01.011.016.022.025.035a2.446 2.446 0 01.085.137c.383.665.488 1.505.066 2.2-.923 1.472-2.716 2.197-4.435 2.458l-.84-2.274c-.04-.115-.13-.381-.177-.501-.018-.043-.01-.024-.023-.066.21-.079.274-.095.347-.118.737-.22 1.81-.445 2.705-.332.015.004.038.012.048.038l.001.002.002.015a.397.397 0 01-.006.143v.005l-.013.054a.496.496 0 01-.065.166c-.095.16-.275.284-.215.456.006.014.011.016.029.019a1.41 1.41 0 00.542-.076.506.506 0 00.193-.123c.207-.23.426-.559.395-.865-.017-.281-.18-.469-.363-.63a1.134 1.134 0 00-.329-.179c-.795-.258-1.623-.176-2.437.038a8.257 8.257 0 00-1.049.334l-.061.02-.051.022-.05.023-.486-1.294c-.163-.315-.48-.644-.868-.645-.131.79.373 2.262.378 2.39-.04.024-.082.049-.12.074a9.182 9.182 0 00-.708.44 6.306 6.306 0 00-.601.44c-.354.306-.693.65-.928 1.116a.717.717 0 00.009.63.545.545 0 00.08.096c.995.849 2.408 1.255 3.636 1.379.208.351.35.757.685.946.233-.015.455-.13.6-.226.18-.159.064-.446.013-.654.017-.004.016-.003.027-.004 1.992-.204 3.954-1.075 5.054-2.676.683-1.015.78-2.195.204-3.248m-8.781 3.193c.623-.33.982-.476 1.13-.541.285.815.5 1.632.76 2.47-1.014-.014-2.125-.165-3.045-.814-.017-.013-.027-.028-.033-.036l-.002-.004-.001-.004c-.084-.154.066-.343.18-.43.304-.242.655-.45 1.011-.642m14.854-6.398a.098.098 0 00-.046-.05.163.163 0 00-.049-.01c-1.309-.072-2.845.618-3.705 1.573-.264.28-.3.643-.204 1.005a.78.78 0 00.184.313.63.63 0 00.293.144.55.55 0 00.07 0 8.223 8.223 0 001.138-.258c.193-.051.332-.09.332-.09.723-.186 1.087-.211 1.087-.211l.004-.001c.309-.02.721-.093.919.227.009.014.009.024.009.04-.104.463-.768.84-1.216 1.084-.3.145-1.045.551-1.54.369a.189.189 0 01-.118-.128h-.001a.324.324 0 010-.18c.005-.01.013-.037.034-.066.398-.462 1.25-.065 1.735-.305.497-.23.618-.408.63-.537.014-.098-.025-.148-.025-.148-.232-.087-.68-.066-1.033-.01-.494.097-1.198.23-1.57.677-.006.009-.077.096-.105.206a.973.973 0 000 .525c.01.03.03.074.066.121.45.516 1.19.618 1.81.549.821-.146 1.626-.546 2.024-1.259h-.001a1.06 1.06 0 00.116-.302c.045-.34-.073-.814-.289-1.14a.8.8 0 00-.186-.19c-.873-.582-1.898.026-2.883.2a2.703 2.703 0 01-.456.058.883.883 0 01-.194-.004c-.009 0-.018-.004-.027-.006h-.004a.12.12 0 01-.066-.047c-.01-.015-.003-.026.002-.034.696-.607 1.685-.902 2.548-1.321.272-.143.575-.236.697-.524.004-.01.01-.024.016-.044l.001-.004c.001 0 0 0 0 0a.412.412 0 00.018-.13c0-.026-.004-.05-.007-.067l-.004-.01-.003-.011v-.001l-.001-.002m3.086-1.631c-.181-.131-.506-.383-.783-.304-.089.084-.04.235.01.319.542.924 1.244 1.69 1.618 2.752a.892.892 0 01.044.16c0 .05-.01.094-.05.113-.875-.596-1.594-1.36-2.584-1.838a.353.353 0 00-.085-.027c-.136-.013-.223.091-.273.211a1.074 1.074 0 00-.047.248c-.044.623.057 1.263.184 1.893.06.322.218 1.21.59 1.604.15.135.373.244.565.16.128-.062.176-.265.175-.417l-.704-2.494.1.082c.777.627 1.347 1.442 2.354 1.802.136.035.273-.033.38-.124a.917.917 0 00.22-.253c.193-.31.205-.737.14-1.051a4.72 4.72 0 00-1.854-2.836m-7.356-.279c-.143-.197-.35-.109-.53-.027-.068.037-.13.082-.16.105-.554.473-.948 1.253-1.115 1.973.462-.076.875-.305 1.243-.603.114-.108.23-.215.333-.352.215-.312.441-.73.229-1.096m-1.832.318c-.032.002-.066.009-.096.015a.713.713 0 00-.286.133l-.015.013a1.32 1.32 0 00-.102.097 2.305 2.305 0 00-.352.513 1.746 1.746 0 00-.135.39c-.002.02-.017.09-.012.18.009.118.032.236.139.278.007-.026.017-.051.027-.076.085-.229.369-.938.833-1.544m2.453-.347c.015.1.025.258-.008.438-.11.545-.372 1.023-.695 1.447a3.32 3.32 0 01-.652.651c-.366.264-.845.345-1.264.356-.035.096-.015.445-.216.498-.106.037-.183.011-.298-.105a1.208 1.208 0 01-.092-.118 1.382 1.382 0 01-.095-.185c-.035-.101-.068-.207-.079-.241-.375-.181-.6-.546-.652-.943a1.078 1.078 0 01-.01-.116l-.001-.115a.146.146 0 00.005-.024c.025-.332.18-.937.886-1.66.075-.075.205-.193.364-.302.2-.133.466-.278.84-.366l.02-.003c.156-.035.336-.054.512-.024 0 0 .255.04.371.201a.88.88 0 01.248-.065c.016 0 .036-.002.056-.004a.843.843 0 01.354.076h-.001a.749.749 0 01.082.043c.197.117.29.315.325.56m15.847-.91a1.297 1.297 0 00-.14-.28c-.053-.069-.115-.154-.199-.141h.001c-.03.002-.053.03-.068.05-.05.1-.098.202-.142.302l-.014.032-.017.04a9.69 9.69 0 00-.481 1.55c-.044.224-.087.448-.128.668-.009.05-.015.1-.022.15.463-.164.806-.535 1.066-.948.255-.456.304-.942.142-1.423h.001zm.752.35c.135 1.052-.454 2.271-1.286 2.934 0 0-.323.263-.804.342-.031.548-.03 1.051-.013 1.473.043.828.125 1.66.297 2.496-.33.166-.799-.059-1.059-.325a.697.697 0 01-.123-.191 2.344 2.344 0 01-.187-.67c-.122-.66-.166-1.312-.196-1.962-.006-.403.018-.8.06-1.177a1.664 1.664 0 01-.43-.499c-.534-1.064-.332-2.166.038-3.215.027-.069.055-.134.08-.191.08-.151.137-.353.314-.4.438.921-.277 1.861-.06 2.819.034.136.11.353.238.427a11.57 11.57 0 01.468-1.592c.235-.607.528-1.162.926-1.62.056-.061.167-.172.267-.207a.63.63 0 01.4.007c.027.012.07.03.11.053.53.332.898.846.96 1.497m-5.635.714c.203-.086.789-.26.983-.58-.086-.344-.494-.54-.84-.57-.944.261-1.75.761-2.586 1.173-.08.041-.233.113-.19.235.21.366.63.305.958.275v.05l.016.815-.06.022-.113.05a.956.956 0 00-.072.044c-.09.067-.193.16-.113.271.488.474.05 1.064.313 1.618.17.358.5.677.898.75a.744.744 0 00.24-.015c.904-.23 1.462-.942 1.943-1.692.019-.192-.175-.362-.33-.46-.68.084-1.184.582-1.801.848l-.001-.001-.05.024c.01-.185.007-.578-.001-1.027.077-.038.235-.102.369-.138.13-.04.27-.075.35-.104.305-.106.622-.189.788-.431a.14.14 0 00.015-.11c-.028-.11-.068-.325-.19-.418-.427-.004-.87.22-1.28.361l-.057.022-.021-.688.833-.324zm-12.251 3.715c-.136-.189-.297-.366-.544-.321-.125.079-.153.245-.147.357.176 1.038.505 2.074.881 3.11.143.35.261.892.729.83a.676.676 0 00.541-.342c-.352-1.195-.824-2.241-1.29-3.344a2.383 2.383 0 00-.17-.29m20.11-5.976a.513.513 0 00.968-.338.512.512 0 10-.968.338m30.528-11.441a2.77 2.77 0 01-.795.442l-.047-.131a85.272 85.272 0 01-.763-2.304c1.318-.42 1.896.049 2.043.47.26.746-.15 1.283-.438 1.523m-2.912-1.503c.15.348.613 1.653.71 1.933l.177.505c.277.796.768 2.227.885 2.648a8.14 8.14 0 01-.834.404l.069.454a19.951 19.951 0 011.615-.614c.52-.181 1.056-.365 1.59-.504l-.228-.396c-.292.075-.594.149-.89.199a66.03 66.03 0 01-.77-2.086l-.034-.098c.154-.06.383-.159.605-.257.75.452 3.3 1.89 3.995 1.956l.68-.345c-1.027-.533-2.687-1.693-3.615-2.479.482-.592.834-1.472.638-2.034-.18-.518-.618-.76-1.158-.783-.672-.028-1.766.345-2.546.616l-2.004.709.202.391c.302-.078.61-.161.913-.219m-5.253 2.264c.38.491 1.028 1.304 1.38 1.759l-1.405.46c-.001-.448.018-1.475.025-2.219m3.266 4.142c-.239.138-.489.25-.741.363l.046.461c.502-.221 1.03-.411 1.545-.59.495-.172 1.092-.409 1.619-.499l-.213-.41c-.262.054-.527.11-.796.15-.634-.61-1.591-1.772-2.034-2.316a78.55 78.55 0 01-1.67-2.114c.176-.11.366-.2.554-.29l-.088-.44c-.526.227-1.077.427-1.622.617-.424.147-.861.283-1.295.402l.161.41c.214-.046.425-.096.64-.126-.016.89-.101 5.041-.202 5.794a7.076 7.076 0 01-.703.367l.09.445c.354-.161.72-.302 1.088-.431.49-.171.992-.333 1.495-.474l-.227-.392c-.236.056-.472.115-.713.142-.114-.651-.197-1.972-.207-2.304.357-.17 1.354-.572 1.717-.705.558.604 1.05 1.293 1.556 1.94m-7.893 1.74c.747.433 1.573.875 2.403 1.143l.624-.366c-1.374-.907-2.717-1.872-4.073-2.808.101-.275.335-.869.566-1.435.162-.386.318-.782.51-1.156l.045-.09c.183-.116.365-.223.543-.341l-.101-.42c-.324.143-.65.277-.983.393-.436.153-.876.294-1.324.408l.228.39c.126-.023.255-.048.385-.068l.156-.022c-.096.512-.38 1.52-.527 1.999a35.927 35.927 0 01-1.663-1.23c.188-.11.384-.208.58-.3l-.026-.459c-.51.205-1.025.404-1.546.585-.45.157-.952.351-1.434.432l.21.405c.205-.028.414-.073.622-.08.26.137.762.454 1.305.805.529.343 1.094.715 1.512.984-.208.611-.974 2.993-1.245 3.354-.148.126-.343.215-.518.306l.006.47c.353-.155.699-.295 1.061-.421.474-.165 1.194-.38 1.325-.426l.14-.049-.2-.387a8.601 8.601 0 01-.646.12c.109-.742.438-2.132.591-2.632.305.182.849.53 1.474.897m-5.666 2.976c-.143-.33-.57-1.533-.913-2.516l-.178-.513c-.317-.907-.603-1.75-.68-2.046.272-.138.543-.286.82-.415l-.047-.466c-.453.22-.947.39-1.42.555-.585.205-1.218.437-1.828.58l.25.392c.296-.07.593-.136.893-.191.175.42.644 1.739.733 1.991l.169.486c.262.753.732 2.125.867 2.604-.266.145-.546.29-.827.406l.067.45c.466-.196.945-.376 1.428-.543.586-.205 1.205-.428 1.812-.58l-.25-.39c-.296.072-.595.147-.896.196m-5.946 2.067c.362-.075.72-.167 1.077-.253l.246.386c-.587.166-1.18.364-1.756.565-.551.192-1.109.392-1.646.624l-.065-.448c.275-.139.556-.266.83-.412-.15-.515-.696-2.095-.945-2.81l-.115-.332c-.085-.242-.544-1.543-.715-1.947-.309.038-.615.13-.916.207l-.2-.39 2.053-.725c.905-.315 1.718-.515 2.209-.49.911.054 1.199.579 1.284.823.504 1.444-.685 2.599-1.86 3.2l-.103-.47c.685-.448 1.083-1.051.76-1.975-.161-.464-.517-.753-.957-.808-.26-.03-.63.041-.964.147.108.386.451 1.387.67 2.016l.123.35c.223.642.806 2.299.99 2.742"></path>
        </g>
      </g>
    </svg>