<?xml version="1.0" encoding="UTF-8" standalone="no"?>
<svg
   xmlns:dc="http://purl.org/dc/elements/1.1/"
   xmlns:cc="http://creativecommons.org/ns#"
   xmlns:rdf="http://www.w3.org/1999/02/22-rdf-syntax-ns#"
   xmlns:svg="http://www.w3.org/2000/svg"
   xmlns="http://www.w3.org/2000/svg"
   version="1.1"
   id="svg5247"
   viewBox="0 0 299.99999 242.19717"
   height="68.353424mm"
   width="84.666664mm">
  <defs
     id="defs5249" />
  <metadata
     id="metadata5252">
    <rdf:RDF>
      <cc:Work
         rdf:about="">
        <dc:format>image/svg+xml</dc:format>
        <dc:type
           rdf:resource="http://purl.org/dc/dcmitype/StillImage" />
        <dc:title></dc:title>
      </cc:Work>
    </rdf:RDF>
  </metadata>
  <g
     transform="translate(-181.4286,-1179.835)"
     id="layer1">
    <g
       transform="matrix(1.8207971,0,0,1.8207971,-1298.1436,293.40494)"
       id="g5216">
      <path
         id="path4168"
         style="fill:#000000;fill-opacity:1;fill-rule:nonzero;stroke:none"
         d="m 832.57637,533.5757 c 1.7225,-0.75625 2.32125,-0.97875 3.6825,-1.45375 1.00625,-0.35 2.045,-0.7625 3.17,-1.16375 3.35375,3.5025 7.1025,8 9.31625,10.48375 2.82125,3.165 6.05625,6.745 9.73,10.02625 -1.02125,-3.0425 -2.83,-6.97625 -4.26,-10.34125 -1.43125,-3.365 -4.69625,-12.0375 -6.50625,-16.06 1.28,-0.69 4.08375,-1.62625 5.755,-2.22 1.09375,-0.38875 2.75375,-0.92 3.86375,-1.43125 2.24375,5.65625 4.5475,11.70875 6.00625,15.65 1.345,3.63 3.20875,7.95625 4.9775,13.01875 1.64375,4.70375 3.69625,9.66125 4.6525,12.02 0.95625,2.36 2.32875,6.3025 3.30375,8.3925 -1.66,0.94125 -4.37625,1.555 -7.39875,2.62875 -3,-3.15875 -5.75875,-5.57875 -8.74125,-8.74875 -3.39375,-3.605 -7.32,-8.225 -8.905,-9.92625 -1.85875,-1.99625 -6.3475,-6.965 -6.3475,-6.965 1.695,4.445 5.1925,14.01 6.57,18.21625 1.375,4.205 2.5325,7.375 2.86375,8.3125 -1.40125,0.7625 -3.0225,1.485 -3.6475,1.7075 -0.62625,0.22125 -1.35375,0.4825 -2.08375,0.73875 -1.57875,-3.78125 -3.65125,-9.6175 -4.94125,-12.9125 -1.29,-3.29875 -2.53875,-8.13625 -4.8575,-14.0025 -2.31875,-5.865 -5.715,-14.265 -6.2025,-15.97" />
      <path
         id="path4172"
         style="fill:#000000;fill-opacity:1;fill-rule:nonzero;stroke:none"
         d="m 883.88424,530.82108 c 2.08875,-0.97625 5.97375,-2.1825 8.6425,-3.4225 -0.88125,-2.15125 -3.03375,-7.96125 -4.14625,-9.8525 -1.38625,-2.35875 -3.5825,-4.30375 -5.895,-4.53625 -2.3125,-0.235 -4.87125,-0.5 -9.3825,1.3375 -4.5125,1.8375 -7.59,4.985 -8.35125,7.545 -0.7375,2.4725 -1.19875,4.885 1.2875,12.2175 2.48875,7.33125 7.2925,10.7 11.70125,9.80875 3.31625,-0.67 5.61125,-1.055 7.49875,-1.02125 1.89,0.0325 5.2225,0.49125 6.6425,5.15125 1.4225,4.65875 -1.3475,6.1125 -3.64125,6.9275 -2.2925,0.81375 -5.31625,1.68 -6.93625,-2.3475 -1.3475,-3.3475 -1.51125,-3.9225 -1.51125,-3.9225 -2.2225,0.8475 -3.16,1.18125 -6.4425,2.3475 1.1775,2.985 2.99375,7.50625 5.2025,9.36 2.50875,2.1 6.52,2.49375 12.98125,0.19875 6.46125,-2.295 9.73125,-6.8025 8.855,-10.4225 -0.6025,-2.49375 -3.43375,-10.91125 -5.5175,-13.385 -2.28375,-2.71 -7.03625,-2.45875 -11.29875,-2.235 -4.2625,0.2225 -7.4575,0.97625 -9.0875,-1.46625 -1.38625,-2.07375 -3.07625,-7.005 -2.9025,-8.8275 0.175,-1.8225 3.0775,-2.73625 3.7025,-2.95875 0.625,-0.2225 3.705,-1.05125 4.84,0.745 0.92,1.45125 0.75,1.61125 3.75875,8.75875" />
      <path
         id="path4176"
         style="fill:#000000;fill-opacity:1;fill-rule:nonzero;stroke:none"
         d="m 890.17399,510.86482 c 1.5275,-0.5725 2.98125,-1.1775 4.44375,-1.6975 0.5725,-0.2025 1.94625,-0.6325 3.4425,-1.04625 1.44375,4.065 3.74625,9.55375 6.005,15.91125 2.25875,6.35625 4.175,10.9275 5.06375,13.4275 0.89,2.5025 4.0375,11.36 4.69625,12.885 -1.49,0.76375 -3.955,1.7575 -4.7875,2.05375 -0.8325,0.29625 -2.22625,0.67375 -3.02125,1.07375 -1.595,-4.65625 -3.33625,-9.55375 -4.595,-13.0975 -1.26,-3.5425 -4.2225,-11.88 -6.65375,-18.23375 -2.5775,-6.725 -3.67625,-9.02125 -4.59375,-11.27625" />
      <path
         id="path4180"
         style="fill:#000000;fill-opacity:1;fill-rule:nonzero;stroke:none"
         d="m 921.40062,539.7912 c 1.74125,-0.38375 3.81,-1.0025 4.88375,-1.6175 1.07,-0.61625 5.515,-2.3125 3.59125,-9.375 -1.92125,-7.0625 -3.8875,-11.93875 -4.93,-14.21 -1.21375,-2.64375 -3.975,-6.655 -8.13625,-5.47125 -3.3025,0.94 -5.815,2.2125 -5.815,2.2125 1.315,3.7 3.4675,9.5325 5.3325,14.5075 1.715,4.5825 4.11,11.24375 5.07375,13.95375 m -8.1525,-36.655 c 6.9625,-2.53375 11.4475,-1.3875 16.0425,2.955 4.1975,3.96625 8.04625,14.30625 9.54625,21.1675 1.4975,6.86125 -0.6175,13.12875 -3.9925,15.85375 -3.37375,2.725 -4.665,2.88875 -7.79,4.00125 -3.1275,1.11 -6.3375,1.985 -8.75875,2.93375 -0.41875,-1.26 -0.77625,-2.1 -1.99,-5.19 -1.21625,-3.08875 -4.875,-12.67625 -7.60625,-19.92 -3.0425,-8.0725 -4.6025,-12.37 -6.79875,-17.6525 2.0975,-0.86375 4.9025,-1.805 11.3475,-4.14875" />
      <path
         id="path4184"
         style="fill:#000000;fill-opacity:1;fill-rule:nonzero;stroke:none"
         d="m 870.20037,601.41645 c 4.3975,12.27625 8.51125,16.9175 11.88875,17.98 2.58125,0.81 5.13375,0.5875 9.6775,-1.025 4.5425,-1.61375 7.80875,-3.035 9.5425,-7.1275 1.73125,-4.09125 -0.37,-10.515 -3.80125,-19.91625 -3.975,-10.88625 -7.10625,-15.4075 -8.5525,-16.46125 -0.92125,-0.67125 -3.62875,-3.15125 -11.325,-0.9 -7.695,2.2525 -9.72,5.93 -10.7425,9.70625 -1.12625,4.16625 0.0275,8.57375 3.3125,17.74375 m 5.99875,-16.5775 c 0.455,-1.28625 2.20625,-2.16875 4.29375,-2.815 2.08875,-0.645 3.925,-0.91 5.0675,0.13125 1.14125,1.0425 2.75875,4.2325 5.73125,12.0575 2.9725,7.825 4.45875,11.56125 3.7225,13.7375 -0.59125,1.75125 -1.6225,2.8 -4.05375,3.56625 -2.43125,0.7675 -4.59125,0.37375 -5.83125,-1.21375 -1.24,-1.58625 -3.6525,-6.605 -5.6925,-12.06 -2.3625,-6.31875 -4.05375,-11.08625 -3.2375,-13.40375" />
      <path
         id="path4188"
         style="fill:#000000;fill-opacity:1;fill-rule:nonzero;stroke:none"
         d="m 892.06224,564.59295 c 3.2325,-0.95625 8.0325,-2.66125 9.66125,-3.24 2.02625,6.52 4.6125,12.16625 6.43375,17.02125 1.82125,4.855 3.53375,9.9425 4.98375,13.48125 1.45125,3.54 2.38375,5.88875 4.4875,5.83875 2.62125,-0.0588 7.90375,-1.5125 7.84375,-4.65875 -0.0525,-2.6275 -0.4175,-5.13375 -2.62375,-10.80625 -2.40875,-6.19375 -4.48,-12.1575 -5.88,-16.1 -1.4025,-3.9425 -3.66,-9.665 -4.3125,-10.6875 2.05125,-1.01875 6.22625,-2.30875 6.22625,-2.30875 2.40875,5.41875 5.4975,13.9725 7.61,19.78875 2.2375,6.16375 5.7125,16.89125 5.91625,19.9075 0.2025,3.0175 0.44125,6.4075 -3.4675,9.535 -3.90875,3.1275 -11.8175,4.7775 -15.1325,4.41125 -3.31625,-0.3675 -6.60625,-2.2875 -9.1825,-8.99875 -2.5775,-6.70875 -5.0625,-14.515 -6.60375,-18.31 -1.54125,-3.7975 -5.41125,-13.3325 -5.96,-14.87375" />
      <path
         id="path4192"
         style="fill:#000000;fill-opacity:1;fill-rule:nonzero;stroke:none"
         d="m 842.48962,571.96408 c -0.7475,-2.43375 -2.1,-6.325 -2.945,-8.37125 -0.84375,-2.0475 -3.7925,-9.685 -5.2375,-13.74875 -1.4425,-4.065 -4.07,-10.46625 -8.32125,-22.10125 -1.68625,-4.6175 -2.52375,-7.615 -3.8275,-11.1725 -1.1425,0.42625 -2.62125,0.95125 -3.98,1.35 -1.61,0.47375 -2.70625,0.815 -5.5825,2.00375 2.1975,5.73 6.70875,17.59875 9.94875,25.8825 3.83125,9.79 7.7975,20.7025 9.81375,25.885 2.01625,5.17875 4.83375,11.94 4.83375,11.94 1.71375,-0.8725 6.04,-2.32125 8.25125,-3.28375 -0.3875,-1.00625 -2.20625,-5.95 -2.95375,-8.38375" />
      <path
         id="path4196"
         style="fill:#000000;fill-opacity:1;fill-rule:nonzero;stroke:none"
         d="m 976.80512,522.6617 c -0.26375,-1.34375 -0.47375,-2.345 -1.04125,-4.28375 -0.595,0.20125 -1.24875,0.42125 -1.98375,0.66875 -6.29,2.1175 -9.21375,3.99875 -13.73,5.48625 -4.51875,1.4875 -9.69875,3.0925 -9.69875,3.0925 -1.17875,-2.98375 -3.14,-8.50625 -3.34625,-10.07625 2.21875,-1.02375 6.20125,-3.025 9.49875,-4.31375 3.2975,-1.29 3.96125,-1.4075 5.27875,-1.9925 -0.36375,-0.6925 -1.5925,-4.48125 -2,-5.6275 -2.01,0.94875 -4.8,1.35375 -6.57,1.9825 -1.7725,0.63 -4.55,1.73375 -6.39,2.50375 -0.7325,-1.73375 -2.095,-5.24 -3.31125,-8.33 3.8875,-1.615 10.37125,-4.50625 12.635,-5.075 -0.83875,-1.6975 -3.0975,-8.05375 -3.55,-9.65375 -3.7575,0.9825 -6.4225,2.4 -10.76375,4.05875 -4.33875,1.65875 -7.95125,2.885 -10.82875,4.2 2.6,6 5.83625,14.12125 7.87375,19.85375 2.03625,5.73125 4.065,11.52375 5.3375,14.85625 1.18375,3.1025 1.99875,5.6275 2.51125,7.23625 3.85625,-1.37 9.35625,-2.7375 14.35125,-4.86375 4.995,-2.1275 10.48625,-5.03875 14.2,-6.47625 0.6525,-0.25125 1.355,-0.5175 2.08125,-0.7925 -0.19875,-0.80125 -0.395,-1.64875 -0.55375,-2.45375" />
      <path
         id="path4200"
         style="fill:#000000;fill-opacity:1;fill-rule:nonzero;stroke:none"
         d="m 955.10374,607.40883 c 1.1625,-0.4825 2.7775,-1.12375 4.255,-1.61 1.37,-0.45125 2.36875,-0.79375 4.42375,-1.69375 -2.125,-5.76375 -5.68375,-16.1225 -6.8075,-18.75 -1.72,-4.02125 -10.42125,-29.60125 -11.27875,-32.28875 2.0825,-0.9325 7.935,-3.205 12.3075,-4.76 -0.45125,-0.99625 -1.565,-4.53375 -2.26625,-6.9175 -3.4525,1.42 -6.025,2.335 -11.505,4.57125 -5.47875,2.23625 -9.88125,3.705 -13.27875,5.0075 -3.39875,1.305 -6.49,2.1125 -7.74,2.94375 0.64,1.79875 1.74875,4.1075 1.99875,5.08125 0.24875,0.97375 1.24875,3.51375 1.24875,3.51375 3.17625,-0.83875 8.8275,-3.13625 11.125,-3.46875 2.6125,7.08375 5.00625,13.28 7.79125,20.3025 2.785,7.025 6.57,19.28625 8.64125,25.11375 0.34625,0.97625 0.7025,1.94 1.085,2.955" />
      <path
         id="path4204"
         style="fill:#000000;fill-opacity:1;fill-rule:nonzero;stroke:none"
         d="m 861.60862,508.53458 0,0 c 0,0 -0.71875,-1.57625 -3.61625,-2.51 -0.0188,-0.006 -0.0375,-0.0138 -0.0563,-0.02 -0.01,-0.002 -0.0213,-0.005 -0.0312,-0.009 -0.2025,-0.0638 -0.415,-0.1225 -0.63875,-0.18 -0.895,-0.2275 -1.77125,-0.32625 -2.46125,-0.38 -2.04,-0.15875 -4.8225,0.195 -6.89,1.71125 -0.2925,0.23625 -0.30125,0.59875 -0.305,0.9375 0.005,0.0487 0.0175,0.1375 0.0662,0.1775 0.16875,0.09 0.37375,0.0337 0.5725,-0.0263 0.0813,-0.0275 0.255,-0.0888 0.36625,-0.1475 0.0662,-0.0425 0.1225,-0.095 0.0925,-0.17375 -0.007,-0.0175 -0.0163,-0.0275 -0.0275,-0.0362 -0.21375,-0.135 -0.4275,0.0225 -0.62125,-0.0138 -0.006,-0.004 -0.01,-0.01 -0.01,-0.0163 0.002,-0.015 0.007,-0.0288 0.0137,-0.0412 l -10e-4,0 c 0.0388,-0.0712 0.12625,-0.13375 0.20375,-0.18125 0.003,-0.001 0.0275,-0.0175 0.03,-0.02 0.015,-0.008 0.03,-0.0163 0.0463,-0.025 0.0175,-0.009 0.03,-0.0138 0.03,-0.0138 1.76875,-0.9475 3.7,-1.235 5.52875,-1.205 2.125,0.11125 4.6875,0.4975 6.26625,2.22375 0.04,0.0462 0.0863,0.10125 0.1325,0.165 0.004,0.005 0.007,0.0113 0.0113,0.0175 0.009,0.0113 0.0162,0.0225 0.025,0.035 0.0237,0.0362 0.0475,0.0737 0.07,0.1125 0.005,0.009 0.01,0.0175 0.015,0.025 0.3825,0.665 0.4875,1.505 0.0663,2.19875 -0.92375,1.4725 -2.71625,2.1975 -4.435,2.45875 l -0.84125,-2.27375 c -0.0388,-0.115 -0.13,-0.38125 -0.17625,-0.50125 -0.0175,-0.0425 -0.01,-0.0238 -0.0225,-0.0663 0.21,-0.0787 0.27375,-0.095 0.34625,-0.1175 0.7375,-0.22 1.81125,-0.445 2.705,-0.3325 0.015,0.004 0.0388,0.0125 0.0488,0.0387 0,0.001 10e-4,0.002 10e-4,0.002 10e-4,0.004 10e-4,0.01 0.002,0.015 0.008,0.0487 0.003,0.0987 -0.006,0.1425 l 0,0 c 0,0.002 0,0.004 -10e-4,0.005 -0.004,0.0188 -0.007,0.0375 -0.0125,0.0537 -0.0288,0.11 -0.055,0.15375 -0.065,0.16625 -0.095,0.16 -0.275,0.28375 -0.215,0.45625 0.006,0.0138 0.0112,0.0163 0.0287,0.0188 0.17875,0.0138 0.37125,-0.0188 0.5425,-0.0763 0.0237,-0.007 0.11375,-0.0425 0.1925,-0.1225 0.2075,-0.23 0.42625,-0.55875 0.395,-0.865 -0.0163,-0.28125 -0.17875,-0.46875 -0.3625,-0.63 -0.11375,-0.0937 -0.25625,-0.15375 -0.32875,-0.17875 -0.795,-0.25875 -1.62375,-0.17625 -2.4375,0.0375 -0.4875,0.1225 -0.84625,0.2525 -1.04875,0.33375 -0.02,0.006 -0.04,0.0137 -0.0612,0.0212 l -0.0512,0.0213 c -0.004,10e-4 -0.0462,0.0213 -0.05,0.0225 l -0.48625,-1.29375 c -0.1625,-0.315 -0.47875,-0.64375 -0.8675,-0.645 -0.13125,0.79 0.3725,2.2625 0.3775,2.39 -0.04,0.0238 -0.0813,0.0488 -0.12,0.0738 -0.2225,0.125 -0.4625,0.2725 -0.7075,0.44125 -0.20625,0.135 -0.40875,0.2775 -0.60125,0.43875 -0.35375,0.30625 -0.6925,0.65125 -0.9275,1.11625 -0.015,0.0337 -0.0337,0.08 -0.0462,0.125 -0.0362,0.16125 -0.0325,0.3525 0.055,0.505 0.009,0.015 0.0375,0.055 0.08,0.0962 0.995,0.84875 2.4075,1.255 3.63625,1.37875 0.2075,0.35125 0.34875,0.7575 0.685,0.94625 0.2325,-0.015 0.455,-0.13 0.59875,-0.22625 0.18,-0.15875 0.065,-0.44625 0.0137,-0.65375 0.0175,-0.004 0.0163,-0.003 0.0275,-0.004 1.99125,-0.20375 3.95375,-1.075 5.05375,-2.67625 0.6825,-1.015 0.78,-2.195 0.20375,-3.2475 m -8.78125,3.1925 c 0.62375,-0.33 0.9825,-0.47625 1.13,-0.54125 0.285,0.815 0.50125,1.6325 0.76,2.47125 -1.01375,-0.015 -2.125,-0.16625 -3.045,-0.815 -0.0163,-0.0125 -0.0263,-0.0275 -0.0325,-0.0362 -0.001,-10e-4 -0.001,-0.003 -0.002,-0.004 0,0 -10e-4,-10e-4 -10e-4,-0.004 -0.0838,-0.15375 0.0662,-0.3425 0.18,-0.43 0.30375,-0.24125 0.655,-0.45 1.01125,-0.64125 m 14.85375,-6.39875 c -0.007,-0.0188 -0.0225,-0.035 -0.0462,-0.0487 -0.0137,-0.006 -0.0325,-0.01 -0.0487,-0.0113 -1.30875,-0.0712 -2.845,0.61875 -3.705,1.57375 -0.26375,0.28 -0.3,0.6425 -0.20375,1.005 0.02,0.0587 0.0738,0.21 0.18375,0.3125 0.085,0.0713 0.19,0.1275 0.2925,0.14375 0.015,0.001 0.0412,0.002 0.0712,0 0.37625,-0.0488 0.7575,-0.15125 1.1375,-0.2575 0.1925,-0.0513 0.33125,-0.09 0.33125,-0.09 0.72375,-0.18625 1.0875,-0.21125 1.0875,-0.21125 l 0.004,-0.001 c 0.30875,-0.02 0.72125,-0.0925 0.91875,0.2275 0.009,0.0138 0.009,0.0238 0.009,0.04 -0.10375,0.4625 -0.7675,0.84 -1.21625,1.08375 -0.3,0.145 -1.045,0.55125 -1.54,0.36875 -0.0688,-0.0275 -0.0988,-0.075 -0.11,-0.10375 -0.003,-0.007 -0.006,-0.0163 -0.008,-0.0238 l -10e-4,-0.001 c -0.015,-0.055 -0.0175,-0.11625 10e-4,-0.17875 0.004,-0.01 0.0125,-0.0375 0.0338,-0.0662 0.3975,-0.4625 1.24875,-0.065 1.735,-0.305 0.49625,-0.23 0.6175,-0.40875 0.63,-0.5375 0.0137,-0.0975 -0.025,-0.1475 -0.025,-0.1475 -0.2325,-0.0875 -0.68125,-0.0663 -1.03375,-0.01 -0.49375,0.0962 -1.1975,0.23 -1.57,0.67625 -0.006,0.009 -0.0762,0.0962 -0.105,0.20625 -0.0437,0.165 -0.0525,0.35 0,0.525 0.0113,0.03 0.03,0.0738 0.0663,0.12125 0.45,0.51625 1.19,0.6175 1.81,0.54875 0.82125,-0.14625 1.62625,-0.54625 2.02375,-1.25875 l -10e-4,0 c 0.0762,-0.1375 0.105,-0.24625 0.11625,-0.3025 0.045,-0.33875 -0.0725,-0.81375 -0.28875,-1.13875 -0.0625,-0.09 -0.1325,-0.1525 -0.18625,-0.19125 -0.8725,-0.58125 -1.8975,0.0263 -2.8825,0.20125 -0.12125,0.025 -0.295,0.0537 -0.45625,0.0575 -0.0987,0.007 -0.16,10e-4 -0.19375,-0.004 -0.009,-10e-4 -0.0187,-0.004 -0.0275,-0.006 -0.002,0 -0.004,0 -0.004,0 -0.0263,-0.009 -0.05,-0.0225 -0.0662,-0.0475 -0.009,-0.015 -0.003,-0.0263 0.002,-0.0337 0.69625,-0.6075 1.685,-0.9025 2.54875,-1.32125 0.27125,-0.1425 0.575,-0.23625 0.69625,-0.52375 0.004,-0.01 0.01,-0.0237 0.0163,-0.0437 0,0 0.001,-10e-4 0.001,-0.004 10e-4,0 0,-0.001 0,-0.001 0.01,-0.0325 0.0187,-0.0775 0.0175,-0.12875 0.001,-0.0263 -0.004,-0.0513 -0.007,-0.0675 -10e-4,-0.004 -0.003,-0.006 -0.004,-0.01 -10e-4,-0.006 -0.003,-0.01 -0.003,-0.0112 l 0,-10e-4 c -10e-4,-0.001 -10e-4,-0.002 -10e-4,-0.002 m 3.08625,-1.63125 c -0.18125,-0.13125 -0.50625,-0.3825 -0.7825,-0.30375 -0.0888,0.0838 -0.0412,0.235 0.009,0.31875 0.5425,0.92375 1.245,1.69 1.61875,2.7525 0.015,0.0425 0.0387,0.115 0.0437,0.16 0.001,0.05 -0.01,0.0937 -0.0488,0.1125 -0.87625,-0.59625 -1.595,-1.36 -2.585,-1.8375 -0.0425,-0.0188 -0.07,-0.025 -0.085,-0.0275 -0.13625,-0.0125 -0.2225,0.0913 -0.2725,0.21125 -0.0125,0.0375 -0.0362,0.11875 -0.0475,0.2475 -0.0438,0.62375 0.0575,1.26375 0.18375,1.89375 0.06,0.32125 0.21875,1.21 0.59125,1.60375 0.14875,0.135 0.3725,0.24375 0.56375,0.16 0.12875,-0.0625 0.17625,-0.265 0.175,-0.4175 l -0.70375,-2.49375 0.1,0.0825 c 0.7775,0.62625 1.3475,1.44125 2.35375,1.80125 0.13625,0.035 0.27375,-0.0325 0.38,-0.12375 0.0675,-0.0563 0.15875,-0.14125 0.22,-0.2525 0.19375,-0.31 0.205,-0.7375 0.14,-1.05125 -0.26625,-1.19125 -0.925,-2.16375 -1.85375,-2.83625 m -7.35625,-0.27875 c -0.1425,-0.1975 -0.34875,-0.10875 -0.52875,-0.0275 -0.0688,0.0375 -0.13,0.0825 -0.16125,0.105 -0.55375,0.47375 -0.9475,1.25375 -1.115,1.97375 0.4625,-0.0763 0.875,-0.305 1.24375,-0.60375 0.11375,-0.1075 0.23,-0.215 0.3325,-0.35125 0.215,-0.3125 0.44125,-0.73 0.22875,-1.09625 m -1.83125,0.3175 c -0.0325,0.002 -0.0663,0.009 -0.0963,0.015 l -10e-4,10e-4 c -0.15,0.035 -0.2425,0.0987 -0.285,0.1325 -0.005,0.004 -0.01,0.009 -0.015,0.0125 -0.0362,0.0312 -0.0775,0.07 -0.1025,0.0975 -0.13875,0.15875 -0.2625,0.3275 -0.35125,0.5125 -0.0588,0.12125 -0.10875,0.26375 -0.135,0.39125 -0.002,0.02 -0.0175,0.09 -0.0125,0.17875 0.009,0.11875 0.0325,0.23625 0.13875,0.27875 0.007,-0.0263 0.0175,-0.0513 0.0275,-0.0763 0.085,-0.22875 0.36875,-0.9375 0.8325,-1.54375 m 2.45375,-0.3475 c 0.015,0.1 0.025,0.25875 -0.008,0.43875 -0.11,0.545 -0.3725,1.0225 -0.695,1.44625 -0.19875,0.25625 -0.39875,0.46125 -0.6525,0.65125 -0.36625,0.26375 -0.845,0.345 -1.26375,0.35625 -0.035,0.0962 -0.015,0.445 -0.21625,0.4975 -0.10625,0.0375 -0.1825,0.0113 -0.2975,-0.105 -0.0375,-0.0438 -0.0688,-0.0813 -0.0925,-0.1175 -0.04,-0.0625 -0.0712,-0.13125 -0.095,-0.185 -0.035,-0.10125 -0.0675,-0.2075 -0.0788,-0.24125 -0.375,-0.18125 -0.6,-0.54625 -0.6525,-0.9425 -0.004,-0.0212 -0.007,-0.06 -0.01,-0.11625 -10e-4,-0.0375 -10e-4,-0.0763 -10e-4,-0.115 0.002,-0.007 0.004,-0.015 0.005,-0.0238 0.025,-0.3325 0.18125,-0.9375 0.88625,-1.66125 0.075,-0.0737 0.205,-0.1925 0.36375,-0.30125 0.20125,-0.1325 0.46625,-0.2775 0.84,-0.36625 l 0.0213,-0.003 c 0.155,-0.035 0.335,-0.0537 0.51125,-0.0237 0,0 0.255,0.04 0.37125,0.20125 0.0175,-0.009 0.0325,-0.015 0.0488,-0.02 0.0425,-0.015 0.11375,-0.0362 0.19875,-0.045 0.0163,-10e-4 0.0362,-0.002 0.0563,-0.004 0.18625,-0.006 0.35375,0.0762 0.35375,0.0762 l -10e-4,0 c 0.0275,0.0125 0.0562,0.0263 0.0825,0.0425 0.19625,0.1175 0.28875,0.315 0.325,0.56 m 15.84625,-0.91 c -0.045,-0.12625 -0.10375,-0.22625 -0.14,-0.28 -0.0525,-0.0688 -0.115,-0.15375 -0.19875,-0.14125 l 10e-4,10e-4 c -0.03,0.001 -0.0525,0.0288 -0.0675,0.0487 -0.05,0.10125 -0.0987,0.2025 -0.1425,0.3025 -0.005,0.0113 -0.01,0.0225 -0.0137,0.0325 -0.006,0.0138 -0.0113,0.0263 -0.0175,0.04 -0.20625,0.505 -0.365,1.02875 -0.48125,1.55 -0.0438,0.22375 -0.0863,0.4475 -0.1275,0.6675 -0.009,0.05 -0.015,0.1 -0.0225,0.15 0.46375,-0.16375 0.80625,-0.535 1.06625,-0.9475 0.255,-0.45625 0.30375,-0.9425 0.1425,-1.42375 l 10e-4,0 z m 0.7525,0.35 c 0.135,1.0525 -0.45375,2.27125 -1.28625,2.93375 0,0 -0.3225,0.26375 -0.80375,0.3425 -0.0312,0.5475 -0.03,1.05125 -0.0137,1.4725 0.0437,0.82875 0.125,1.66125 0.2975,2.49625 -0.33,0.16625 -0.79875,-0.0587 -1.05875,-0.325 -0.0525,-0.055 -0.0913,-0.12125 -0.12375,-0.19125 -0.11375,-0.23 -0.165,-0.5175 -0.18625,-0.67 -0.1225,-0.66 -0.16625,-1.31125 -0.19625,-1.96125 -0.006,-0.40375 0.0175,-0.8 0.06,-1.1775 -0.0337,-0.0238 -0.0787,-0.0588 -0.125,-0.10625 -0.115,-0.10875 -0.22875,-0.2525 -0.305,-0.3925 -0.53375,-1.06375 -0.3325,-2.16625 0.0375,-3.215 0.0275,-0.0688 0.055,-0.13375 0.0812,-0.19125 0.0788,-0.15125 0.13625,-0.3525 0.31375,-0.4 0.4375,0.92125 -0.2775,1.86125 -0.0612,2.81875 0.035,0.13625 0.11125,0.35375 0.23875,0.4275 0.14,-0.64875 0.31875,-1.19375 0.455,-1.56125 0.005,-0.01 0.009,-0.0213 0.0125,-0.0312 0.235,-0.60625 0.52875,-1.16125 0.92625,-1.62 0.0562,-0.0612 0.1675,-0.17125 0.2675,-0.20625 0.13125,-0.0437 0.27,-0.0362 0.4,0.007 0.0263,0.0113 0.0688,0.0288 0.11,0.0525 0.53,0.3325 0.8975,0.84625 0.96,1.4975 m -5.635,0.71375 c 0.2025,-0.0863 0.78875,-0.26 0.9825,-0.58 -0.0862,-0.34375 -0.49375,-0.54 -0.84,-0.57 -0.94375,0.26125 -1.75,0.76125 -2.58625,1.1725 -0.0788,0.0413 -0.2325,0.11375 -0.19,0.235 0.21125,0.36625 0.63,0.305 0.95875,0.275 l -10e-4,0.05 0.0163,0.815 -0.0587,0.0225 -0.11375,0.05 c -0.0225,0.0125 -0.0487,0.0275 -0.0725,0.0437 -0.0888,0.0675 -0.1925,0.16 -0.1125,0.27125 0.4875,0.47375 0.05,1.06375 0.3125,1.6175 0.17,0.35875 0.5,0.6775 0.89875,0.75125 0.0575,0.005 0.13875,0.007 0.23875,-0.0163 0.905,-0.22875 1.4625,-0.94125 1.94375,-1.69125 0.0188,-0.1925 -0.175,-0.3625 -0.33,-0.46 -0.68,0.0838 -1.18375,0.58125 -1.80125,0.8475 l -10e-4,-10e-4 -0.0488,0.0238 c 0.01,-0.185 0.006,-0.5775 -0.002,-1.02625 0.0775,-0.0387 0.235,-0.1025 0.36875,-0.13875 0.13,-0.04 0.27125,-0.075 0.35,-0.10375 0.305,-0.10625 0.6225,-0.18875 0.78875,-0.43125 0.0263,-0.0425 0.0213,-0.0863 0.015,-0.11 -0.0287,-0.10875 -0.0687,-0.325 -0.19125,-0.4175 -0.42625,-0.004 -0.87,0.22 -1.27875,0.36125 l -0.0575,0.0213 -0.0213,-0.6875 0.83375,-0.32375 z m -12.25125,3.715 c -0.13625,-0.18875 -0.2975,-0.36625 -0.54375,-0.32125 -0.125,0.0788 -0.15375,0.245 -0.1475,0.3575 0.17625,1.0375 0.505,2.07375 0.88125,3.10875 0.1425,0.35125 0.26125,0.8925 0.72875,0.83 0.23375,-0.0125 0.4225,-0.1475 0.54125,-0.34125 -0.3525,-1.195 -0.82375,-2.24125 -1.29,-3.34375 -0.0662,-0.13375 -0.13375,-0.2375 -0.17,-0.29 m 20.11,-5.97625 c 0.0937,0.26875 0.38875,0.40625 0.65375,0.31375 0.26625,-0.0925 0.4075,-0.3825 0.31375,-0.65125 -0.0937,-0.2675 -0.385,-0.40875 -0.65125,-0.31625 -0.265,0.0925 -0.40875,0.38625 -0.31625,0.65375 m 30.5275,-11.44125 c -0.25625,0.20875 -0.535,0.34625 -0.795,0.4425 l -0.0462,-0.13125 c -0.18625,-0.535 -0.6175,-1.81625 -0.76375,-2.30375 1.31875,-0.42 1.89625,0.0487 2.04375,0.47 0.26,0.74625 -0.15,1.2825 -0.43875,1.5225 m -2.91125,-1.5025 c 0.14875,0.3475 0.6125,1.6525 0.71,1.9325 l 0.17625,0.505 c 0.2775,0.79625 0.76875,2.2275 0.885,2.64875 -0.2625,0.1525 -0.5525,0.28125 -0.83375,0.40375 l 0.0688,0.45375 c 0.51875,-0.2325 1.0775,-0.4275 1.615,-0.61375 0.52,-0.18125 1.05625,-0.365 1.59125,-0.50375 l -0.22875,-0.39625 c -0.2925,0.075 -0.59375,0.14875 -0.89,0.19875 -0.185,-0.455 -0.595,-1.58625 -0.77,-2.08625 l -0.0337,-0.0975 c 0.15375,-0.06 0.3825,-0.15875 0.605,-0.2575 0.74875,0.4525 3.3,1.89 3.995,1.95625 l 0.68,-0.345 c -1.0275,-0.5325 -2.6875,-1.6925 -3.615,-2.47875 0.48125,-0.5925 0.83375,-1.4725 0.6375,-2.03375 -0.18,-0.51875 -0.6175,-0.76 -1.1575,-0.78375 -0.6725,-0.0275 -1.76625,0.345 -2.54625,0.61625 l -2.00375,0.70875 0.20125,0.39125 c 0.3025,-0.0775 0.61,-0.16125 0.91375,-0.21875 m -5.25375,2.26375 c 0.38,0.49125 1.02875,1.30375 1.38125,1.75875 l -1.40625,0.46 c -10e-4,-0.4475 0.0187,-1.475 0.025,-2.21875 m 3.26625,4.1425 c -0.23875,0.1375 -0.48875,0.25 -0.74125,0.3625 l 0.0462,0.46125 c 0.5025,-0.22125 1.03,-0.41125 1.545,-0.59 0.495,-0.1725 1.0925,-0.40875 1.61875,-0.49875 l -0.2125,-0.41 c -0.2625,0.0537 -0.5275,0.11 -0.79625,0.14875 -0.63375,-0.60875 -1.59125,-1.77125 -2.03375,-2.315 -0.55875,-0.68625 -1.3575,-1.69 -1.67,-2.11375 0.17625,-0.11 0.36625,-0.20125 0.55375,-0.29125 l -0.0875,-0.43875 c -0.52625,0.22625 -1.0775,0.42625 -1.6225,0.61625 -0.42375,0.1475 -0.86125,0.28375 -1.295,0.4025 l 0.16125,0.41 c 0.21375,-0.0462 0.425,-0.0962 0.64,-0.12625 -0.0163,0.89 -0.10125,5.04125 -0.2025,5.79375 -0.2275,0.1375 -0.46125,0.25625 -0.7025,0.3675 l 0.09,0.445 c 0.35375,-0.16125 0.72,-0.3025 1.0875,-0.43125 0.49125,-0.17125 0.9925,-0.3325 1.495,-0.47375 l -0.22625,-0.3925 c -0.23625,0.0562 -0.4725,0.115 -0.71375,0.1425 -0.11375,-0.65125 -0.19625,-1.9725 -0.20625,-2.30375 0.35625,-0.17 1.35375,-0.5725 1.71625,-0.705 0.55875,0.60375 1.05,1.2925 1.55625,1.94 m -7.8925,1.74 c 0.74625,0.4325 1.5725,0.875 2.4025,1.1425 l 0.62375,-0.36625 c -1.37375,-0.90625 -2.71625,-1.87125 -4.0725,-2.8075 0.10125,-0.275 0.335,-0.86875 0.56625,-1.435 0.16125,-0.38625 0.3175,-0.7825 0.50875,-1.15625 l 0.0462,-0.09 c 0.1825,-0.11625 0.365,-0.2225 0.5425,-0.34125 l -0.10125,-0.42 c -0.32375,0.14375 -0.64875,0.2775 -0.9825,0.39375 -0.43625,0.1525 -0.87625,0.29375 -1.32375,0.4075 l 0.2275,0.39 c 0.12625,-0.0225 0.255,-0.0475 0.385,-0.0675 l 0.15625,-0.0225 c -0.0962,0.5125 -0.38,1.52 -0.5275,1.99875 -0.38875,-0.26 -1.305,-0.94375 -1.6625,-1.23 0.1875,-0.11 0.38375,-0.2075 0.58,-0.3 l -0.0263,-0.45875 c -0.51,0.205 -1.025,0.40375 -1.54625,0.585 -0.45,0.1575 -0.95125,0.35125 -1.43375,0.4325 l 0.21,0.405 c 0.205,-0.0288 0.41375,-0.0738 0.6225,-0.08 0.26,0.13625 0.76125,0.45375 1.305,0.805 0.52875,0.3425 1.09375,0.715 1.51125,0.98375 -0.2075,0.61125 -0.97375,2.9925 -1.245,3.35375 -0.1475,0.12625 -0.3425,0.215 -0.5175,0.30625 l 0.006,0.47 c 0.3525,-0.155 0.69875,-0.295 1.06125,-0.42125 0.47375,-0.165 1.19375,-0.38 1.325,-0.42625 l 0.14,-0.0487 -0.2,-0.3875 c -0.21375,0.0488 -0.42875,0.0888 -0.64625,0.12125 0.10875,-0.7425 0.4375,-2.1325 0.59125,-2.6325 0.305,0.18125 0.84875,0.53 1.47375,0.89625 m -5.66625,2.97625 c -0.1425,-0.33 -0.57,-1.5325 -0.9125,-2.51625 l -0.17875,-0.5125 c -0.31625,-0.9075 -0.6025,-1.75 -0.68,-2.04625 0.2725,-0.1375 0.54375,-0.28625 0.82125,-0.415 l -0.0475,-0.46625 c -0.45375,0.22 -0.9475,0.39125 -1.42,0.555 -0.585,0.205 -1.21875,0.4375 -1.82875,0.58 l 0.25,0.3925 c 0.29625,-0.07 0.59375,-0.13625 0.89375,-0.19125 0.175,0.42 0.64375,1.73875 0.7325,1.99125 l 0.16875,0.48625 c 0.2625,0.7525 0.7325,2.125 0.8675,2.60375 -0.26625,0.145 -0.54625,0.29 -0.8275,0.40625 l 0.0675,0.45 c 0.46625,-0.19625 0.945,-0.37625 1.4275,-0.54375 0.58625,-0.205 1.205,-0.4275 1.8125,-0.57875 l -0.25,-0.39 c -0.29625,0.0712 -0.595,0.14625 -0.89625,0.195 m -5.94625,2.0675 c 0.3625,-0.075 0.72125,-0.1675 1.0775,-0.25375 l 0.24625,0.38625 c -0.5875,0.16625 -1.18,0.36375 -1.75625,0.565 -0.55125,0.1925 -1.10875,0.3925 -1.64625,0.62375 l -0.065,-0.4475 c 0.275,-0.13875 0.55625,-0.26625 0.83,-0.4125 -0.15,-0.515 -0.69625,-2.095 -0.945,-2.81 l -0.115,-0.33125 c -0.085,-0.2425 -0.54375,-1.54375 -0.715,-1.9475 -0.30875,0.0387 -0.615,0.13 -0.91625,0.2075 l -0.2,-0.39 2.05375,-0.725 c 0.905,-0.315 1.7175,-0.515 2.20875,-0.49 0.91125,0.0538 1.19875,0.57875 1.28375,0.8225 0.50375,1.44375 -0.685,2.59875 -1.86,3.2 l -0.1025,-0.47 c 0.685,-0.4475 1.0825,-1.05125 0.76,-1.975 -0.16125,-0.46375 -0.5175,-0.7525 -0.9575,-0.8075 -0.26,-0.0312 -0.63,0.0412 -0.96375,0.14625 0.1075,0.38625 0.45125,1.3875 0.67,2.01625 l 0.1225,0.35 c 0.22375,0.6425 0.80625,2.29875 0.99,2.7425" />
    </g>
  </g>
</svg>
